<mxfile host="app.diagrams.net" agent="Mozilla/5.0 (Windows NT 10.0; Win64; x64) AppleWebKit/537.36 (KHTML, like Gecko) Chrome/129.0.0.0 Safari/537.36 Edg/129.0.0.0" version="24.7.17">
  <diagram id="6a731a19-8d31-9384-78a2-239565b7b9f0" name="Page-1">
    <mxGraphModel dx="2595" dy="791" grid="1" gridSize="10" guides="1" tooltips="1" connect="1" arrows="1" fold="1" page="1" pageScale="1" pageWidth="1169" pageHeight="827" background="none" math="0" shadow="0">
      <root>
        <mxCell id="0" />
        <mxCell id="1" parent="0" />
        <mxCell id="2" value="start" style="shape=mxgraph.flowchart.terminator;strokeWidth=2;gradientColor=none;gradientDirection=north;fontStyle=0;html=1;" parent="1" vertex="1">
          <mxGeometry x="260" y="60" width="120" height="30" as="geometry" />
        </mxCell>
        <mxCell id="7" style="fontStyle=1;strokeColor=#003366;strokeWidth=1;html=1;" parent="1" source="2" edge="1">
          <mxGeometry relative="1" as="geometry">
            <mxPoint x="320" y="130" as="targetPoint" />
          </mxGeometry>
        </mxCell>
        <mxCell id="40" value="end" style="shape=mxgraph.flowchart.terminator;strokeWidth=2;gradientColor=none;gradientDirection=north;fontStyle=0;html=1;" parent="1" vertex="1">
          <mxGeometry x="260" y="740" width="120" height="30" as="geometry" />
        </mxCell>
        <mxCell id="43" value="" style="edgeStyle=elbowEdgeStyle;elbow=vertical;exitX=0.5;exitY=1;exitPerimeter=0;entryX=0.5;entryY=0;entryPerimeter=0;fontStyle=1;strokeColor=#003366;strokeWidth=1;html=1;" parent="1" edge="1">
          <mxGeometry width="100" height="100" as="geometry">
            <mxPoint x="319.5" y="640" as="sourcePoint" />
            <mxPoint x="319.5" y="740" as="targetPoint" />
          </mxGeometry>
        </mxCell>
        <mxCell id="xV5cO_HkWADP-ObEiqcw-55" value="ввод x" style="shape=parallelogram;perimeter=parallelogramPerimeter;whiteSpace=wrap;html=1;fixedSize=1;" parent="1" vertex="1">
          <mxGeometry x="260" y="130" width="120" height="60" as="geometry" />
        </mxCell>
        <mxCell id="xV5cO_HkWADP-ObEiqcw-56" style="fontStyle=1;strokeColor=#003366;strokeWidth=1;html=1;" parent="1" edge="1">
          <mxGeometry relative="1" as="geometry">
            <mxPoint x="319.5" y="190" as="sourcePoint" />
            <mxPoint x="319.5" y="230" as="targetPoint" />
          </mxGeometry>
        </mxCell>
        <mxCell id="xV5cO_HkWADP-ObEiqcw-57" value="ввод y" style="shape=parallelogram;perimeter=parallelogramPerimeter;whiteSpace=wrap;html=1;fixedSize=1;" parent="1" vertex="1">
          <mxGeometry x="260" y="230" width="120" height="60" as="geometry" />
        </mxCell>
        <mxCell id="xV5cO_HkWADP-ObEiqcw-58" style="fontStyle=1;strokeColor=#003366;strokeWidth=1;html=1;" parent="1" edge="1">
          <mxGeometry relative="1" as="geometry">
            <mxPoint x="319.5" y="290" as="sourcePoint" />
            <mxPoint x="319.5" y="330" as="targetPoint" />
          </mxGeometry>
        </mxCell>
        <mxCell id="xV5cO_HkWADP-ObEiqcw-59" value="точка с координатами (x, y) попадает в&amp;nbsp;&amp;nbsp;&lt;div&gt;заданную область?&lt;div&gt;((x&lt;sup&gt;2&lt;/sup&gt; + y&lt;sup&gt;2&lt;/sup&gt; &amp;lt;= 4) И (x&lt;sup&gt;2&lt;/sup&gt; + y&lt;sup&gt;2&lt;/sup&gt; &amp;gt;= 1) - ?)&lt;br&gt;&lt;/div&gt;&lt;/div&gt;" style="rhombus;whiteSpace=wrap;html=1;" parent="1" vertex="1">
          <mxGeometry x="155" y="330" width="330" height="140" as="geometry" />
        </mxCell>
        <mxCell id="xV5cO_HkWADP-ObEiqcw-60" value="" style="endArrow=classic;html=1;rounded=0;" parent="1" edge="1">
          <mxGeometry width="50" height="50" relative="1" as="geometry">
            <mxPoint x="485" y="400" as="sourcePoint" />
            <mxPoint x="565" y="510" as="targetPoint" />
            <Array as="points">
              <mxPoint x="565" y="400" />
            </Array>
          </mxGeometry>
        </mxCell>
        <mxCell id="xV5cO_HkWADP-ObEiqcw-61" value="" style="endArrow=classic;html=1;rounded=0;" parent="1" edge="1">
          <mxGeometry width="50" height="50" relative="1" as="geometry">
            <mxPoint x="155" y="400" as="sourcePoint" />
            <mxPoint x="75" y="510" as="targetPoint" />
            <Array as="points">
              <mxPoint x="75" y="400" />
            </Array>
          </mxGeometry>
        </mxCell>
        <mxCell id="xV5cO_HkWADP-ObEiqcw-62" value="нет" style="text;html=1;align=center;verticalAlign=middle;resizable=0;points=[];autosize=1;strokeColor=none;fillColor=none;" parent="1" vertex="1">
          <mxGeometry x="510" y="370" width="40" height="30" as="geometry" />
        </mxCell>
        <mxCell id="xV5cO_HkWADP-ObEiqcw-63" value="да" style="text;html=1;align=center;verticalAlign=middle;resizable=0;points=[];autosize=1;strokeColor=none;fillColor=none;" parent="1" vertex="1">
          <mxGeometry x="90" y="370" width="40" height="30" as="geometry" />
        </mxCell>
        <mxCell id="xV5cO_HkWADP-ObEiqcw-64" value="точка с координатами (x, y), попадает в заданную область - False" style="shape=parallelogram;perimeter=parallelogramPerimeter;whiteSpace=wrap;html=1;fixedSize=1;" parent="1" vertex="1">
          <mxGeometry x="430" y="510" width="270" height="60" as="geometry" />
        </mxCell>
        <mxCell id="xV5cO_HkWADP-ObEiqcw-65" value="точка с координатами (x, y), попадает в заданную область - True" style="shape=parallelogram;perimeter=parallelogramPerimeter;whiteSpace=wrap;html=1;fixedSize=1;" parent="1" vertex="1">
          <mxGeometry x="-70" y="510" width="270" height="60" as="geometry" />
        </mxCell>
        <mxCell id="xV5cO_HkWADP-ObEiqcw-66" value="" style="endArrow=none;html=1;rounded=0;" parent="1" edge="1">
          <mxGeometry width="50" height="50" relative="1" as="geometry">
            <mxPoint x="80" y="640" as="sourcePoint" />
            <mxPoint x="570" y="570" as="targetPoint" />
            <Array as="points">
              <mxPoint x="570" y="640" />
            </Array>
          </mxGeometry>
        </mxCell>
        <mxCell id="xV5cO_HkWADP-ObEiqcw-67" value="" style="endArrow=none;html=1;rounded=0;" parent="1" edge="1">
          <mxGeometry width="50" height="50" relative="1" as="geometry">
            <mxPoint x="80" y="640" as="sourcePoint" />
            <mxPoint x="80" y="570" as="targetPoint" />
          </mxGeometry>
        </mxCell>
      </root>
    </mxGraphModel>
  </diagram>
</mxfile>
